<mxfile host="app.diagrams.net" modified="2024-04-04T16:05:20.545Z" agent="Mozilla/5.0 (Macintosh; Intel Mac OS X 10_15_7) AppleWebKit/605.1.15 (KHTML, like Gecko) Version/16.3 Safari/605.1.15" version="24.2.2" etag="svUQz5pLQB1KBU06xaM_" type="github">
  <diagram name="Page-1" id="CG2w-ltxizPfEeoEaq8T">
    <mxGraphModel>
      <root>
        <mxCell id="0" />
        <mxCell id="1" parent="0" />
      </root>
    </mxGraphModel>
  </diagram>
</mxfile>
